<svg xmlns="http://www.w3.org/2000/svg" viewBox="0 0 600 68.3"><defs><style>.a{fill:#fff;}.b{fill:#ba0c2f;}</style></defs><title>RGB-GEORGIA-XH-CW</title><path class="a" d="M480.57,21.13h0c-10.09,0-15.37,7.15-15.37,14.22,0,8.1,6.38,14.22,14.84,14.22,8.74,0,15.09-6.13,15.09-14.56C495.1,27.1,488.85,21.13,480.57,21.13Zm7.67,15c0,6.76-2.91,10.73-7.42,10.73-5.09,0-8.79-4.93-8.79-12.27,0-6.62,3.17-10.84,7.7-10.84h0C484.91,23.78,488.24,28.4,488.24,36.16Z"/><path class="a" d="M350.45,21.13h0c-10.09,0-15.37,7.15-15.37,14.22,0,8.1,6.38,14.22,14.84,14.22C358.63,49.57,365,43.44,365,35,365,27.1,358.73,21.13,350.45,21.13Zm7.67,15c0,6.76-2.91,11.12-7.42,11.12-5.1,0-8.79-5.32-8.79-12.66,0-6.62,3.16-11.24,7.69-11.24h0C354.79,23.38,358.12,28.4,358.12,36.16Z"/><path class="a" d="M432.85,37.66V48l-1.09.24a40.93,40.93,0,0,1-8.64,1.29c-10.11,0-16.64-5.49-16.64-14,0-10,8.62-14.47,16.62-14.47a42.23,42.23,0,0,1,8.84,1.43v6.49a9.88,9.88,0,0,0-8.64-5.27A9.6,9.6,0,0,0,414,30.36a14.72,14.72,0,0,0-.73,4.54c0,8.59,5.14,12,10.23,12a5.24,5.24,0,0,0,2.37-.47,2.3,2.3,0,0,0,.89-2.12V38.62A4.76,4.76,0,0,0,424.25,34h10.44S432.85,34.5,432.85,37.66Z"/><path class="a" d="M552,37.66V48l-1.08.24a41.13,41.13,0,0,1-8.65,1.29c-10.11,0-16.63-5.49-16.63-14,0-10,8.61-14.47,16.61-14.47a42.23,42.23,0,0,1,8.84,1.43v6.49a9.88,9.88,0,0,0-8.64-5.27,9.6,9.6,0,0,0-9.26,6.58,15,15,0,0,0-.73,4.54c0,8.59,5.14,12,10.23,12a5.21,5.21,0,0,0,2.37-.47,2.3,2.3,0,0,0,.89-2.12V38.62A4.76,4.76,0,0,0,543.37,34h10.44S552,34.5,552,37.66Z"/><path class="a" d="M160.65,21.74c1.63.68,1.25,2.82.59,4.5-.34.93-4.13,10-5.88,14.21-.65-1.81-4.92-13.8-5.14-14.45a3.74,3.74,0,0,1,.85-4.26H140.16c2.33,1.45,3,2.83,4.3,6.31,2.26,5.83,5.38,14.13,7.84,20.71l.06.16h2.89l8.64-21c1-2.35,2.64-5.17,4.6-6.18Z"/><path class="a" d="M189.37,44.72c-1.38,1.57-5,1.47-5.56,1.47a8.77,8.77,0,0,1-3.45-.38c-.73-.31-.86-1.27-.86-3.17V36.72h3.34c3,0,5.09.16,5.7,1.63V32c-.58,1.46-2.55,1.72-5.7,1.72H179.5V25a.55.55,0,0,1,.55-.55h5c2.47,0,3.68.41,4.69,1.66a12.06,12.06,0,0,1,1.66,3.11V21.74H171.1c.63.43,2.3,2,2.3,6.15V42.63c0,5.2-2.54,6.29-2.54,6.29h21v-8A21,21,0,0,1,189.37,44.72Z"/><path class="a" d="M451.89,46.19a8.74,8.74,0,0,1-3.44-.38c-.74-.31-.86-1.27-.86-3.17V36.72h3.34c3,0,5.08.16,5.69,1.63V32c-.57,1.46-2.55,1.72-5.69,1.72h-3.34V25.64c0-1.19,0-1.19,1.49-1.19h4c2.48,0,3.69.41,4.7,1.66a12.06,12.06,0,0,1,1.66,3.11V21.74H439c.64.43,2.31,2,2.31,6.15V42.63c0,5.2-2.54,6.29-2.54,6.29H460v-8a21,21,0,0,1-2.51,3.81C456.07,46.29,452.42,46.19,451.89,46.19Z"/><path class="a" d="M568.63,48.92s-2.55-1.09-2.55-6.29V27.89c0-4.2,1.66-5.72,2.3-6.15H557.79c.64.43,2.3,2,2.3,6.15V42.63c0,5.2-2.55,6.29-2.55,6.29Z"/><path class="a" d="M122,48.92s-2.54-1.09-2.54-6.29V27.89c0-4.2,1.67-5.72,2.31-6.15h-7.61c.64.43,2.31,2,2.31,6.15v11l-15.11-17.2H94.69c.64.43,2.31,2,2.31,6.15V42.63c0,5.2-2.54,6.29-2.54,6.29h8.13S100,47.83,100,42.63v-13l16.11,19.24Z"/><path class="a" d="M261.32,48.92s-2.54-1.09-2.54-6.29V27.89c0-4.2,1.67-5.72,2.31-6.15H250.61c.63.43,2.3,2,2.3,6.15V42.63c0,5.2-2.54,6.29-2.54,6.29Z"/><path class="a" d="M137.08,48.92s-2.55-1.09-2.55-6.29V27.89c0-4.2,1.66-5.72,2.3-6.15H126.32c.64.43,2.3,2,2.3,6.15V42.63c0,5.2-2.55,6.29-2.55,6.29Z"/><path class="a" d="M600,48.92c-2.33-1.44-3-2.82-4.3-6.31-2.26-5.83-5.37-14.13-7.84-20.71l-.05-.16h-3.29l-8.64,21c-1,2.34-2.65,5.17-4.6,6.17h8c-1.63-.68-1.26-2.81-.59-4.5.12-.32.57-1.45,1.19-2.94h8.92c.62,1.71,1.07,3,1.14,3.18a3.73,3.73,0,0,1-.85,4.26ZM581.14,38.4c1.64-4,3.5-8.42,3.5-8.42s1.6,4.43,3.05,8.42Z"/><path class="a" d="M237.84,32.17c-3.87-1.82-5.22-2.89-5.3-5.16-.06-1.87,1.21-3.65,4-3.65A7.74,7.74,0,0,1,244,28.1V22.29a28.32,28.32,0,0,0-7-1.11c-5.92,0-9.89,3.47-9.89,8.11s3.62,6.55,8.13,8.71c3.25,1.59,5,2.65,5,5.1a3.72,3.72,0,0,1-4,4c-4.48,0-7.7-4.13-8.73-6.78l.14,6.92a23.79,23.79,0,0,0,3.86,1.6,16.34,16.34,0,0,0,4.16.63c5.94,0,10.48-2.91,10.48-8.46C246.13,36.93,242.41,34.28,237.84,32.17Z"/><path class="a" d="M380.06,48.92s-2.54-1.09-2.54-6.29v-5.8h3.34c3,0,5.08.17,5.69,1.64V32c-.57,1.46-2.55,1.72-5.69,1.72h-3.34V25.56c0-1.19,0-1.19,1.49-1.19h4c2.48,0,3.69.41,4.7,1.66a12.06,12.06,0,0,1,1.66,3.11v-7.4H369c.64.43,2.31,2,2.31,6.15V42.63c0,5.2-2.54,6.29-2.54,6.29Z"/><path class="a" d="M280.52,25.64c0-1.19,0-1.19,1.5-1.19h1.27c2.48,0,3.69.41,4.7,1.66a12.06,12.06,0,0,1,1.66,3.11V21.74H265.29v7.48A12.06,12.06,0,0,1,267,26.11c1-1.25,2.22-1.66,4.7-1.66h1.27c1.5,0,1.5,0,1.5,1.19v17c0,5.2-2.55,6.29-2.55,6.29h11.2s-2.55-1.09-2.55-6.29Z"/><path class="a" d="M85,36.76V27.89c0-4.2-1.66-5.72-2.3-6.15h7.85c-.63.43-2.3,2-2.3,6.15v8.73s1.22,12.75-10.51,13c0,0-12.13.67-12.13-9.55V27.89c0-4.2-1.66-5.72-2.3-6.15H73.83c-.64.43-2.31,2-2.31,6.15V38.21c0,8.66,6.56,8.44,6.56,8.44S85,47.93,85,36.76Z"/><path class="a" d="M309.44,21.8s3.18,1.69,2,4.18l-4,7.92-4.23-7.69c-1.49-2.74,1.25-4.41,1.25-4.41H292.81a12.75,12.75,0,0,1,4.41,4.6l6,10.36v5.87c0,5.2-2.55,6.29-2.55,6.29h11s-2.54-1.09-2.54-6.29V36.45l5.07-9.51a11.89,11.89,0,0,1,5.19-5.14Z"/><path class="a" d="M213.17,29.59a5.78,5.78,0,0,1-1.93,4.73h0c-.79.7-2.12,1-4.08,1h-.79V25.58c0-.78.08-1.15.27-1.33a3,3,0,0,1,1.81-.39C210.73,23.86,213.17,25.36,213.17,29.59Zm5.38,13.22c-1.2-2-3-4.92-3.92-6.58,1.93-.81,4.88-2.68,4.88-6.62h0a5.82,5.82,0,0,0,0-.6,6.65,6.65,0,0,0-2.89-5.67c-1.72-1.16-3.82-1.59-7.77-1.59H198.14c.64.43,2.3,2,2.3,6.15V42.63c0,5.2-2.55,6.29-2.55,6.29h11s-2.54-1.09-2.54-6.29V37.47h.83a2.69,2.69,0,0,1,2.63,1.59c.42.74.82,1.48,1.21,2.2.77,1.41,1.76,3.3,2.48,4.41,1.71,2.61,3.09,3.74,8.33,3.57,0,0,.89,0,1.58-.09C223.42,49.15,221.62,47.85,218.55,42.81Z"/><path class="a" d="M513.28,29.59a5.78,5.78,0,0,1-1.93,4.73h0c-.79.7-2.12,1-4.08,1h-.79V25.58c0-.78.08-1.15.27-1.33a3,3,0,0,1,1.81-.39C510.84,23.86,513.28,25.36,513.28,29.59Zm5.38,13.22c-1.2-2-3-4.92-3.92-6.58,1.93-.81,4.88-2.68,4.88-6.62h0c0-.19,0-.39,0-.6a6.65,6.65,0,0,0-2.89-5.67c-1.72-1.16-3.82-1.59-7.77-1.59H498.25c.64.43,2.3,2,2.3,6.15V42.63c0,5.2-2.55,6.29-2.55,6.29h11s-2.54-1.09-2.54-6.29V37.47h.83a2.69,2.69,0,0,1,2.63,1.59c.42.74.82,1.48,1.21,2.2.77,1.41,1.76,3.3,2.48,4.41,1.71,2.61,3.09,3.74,8.33,3.57,0,0,.89,0,1.58-.09C523.53,49.15,521.73,47.85,518.66,42.81Z"/><path class="a" d="M47,0V50.07c0,9.55-12,16.27-23.51,18.23C12,66.34,0,59.62,0,50.07V0Z"/><path d="M31.6,11.76a12.46,12.46,0,0,0-20.37,6.91H35.64A12.55,12.55,0,0,0,31.6,11.76Z"/><path d="M21.37,21.14h-9.7a.89.89,0,0,0-.77.85V41.74a1.22,1.22,0,0,0,.65,1.08.2.2,0,0,1,.12.18v5.09l1.52-1.45h8.2V43a.21.21,0,0,1,.11-.19,1.2,1.2,0,0,0,.65-1.07V22A.9.9,0,0,0,21.37,21.14Z"/><path d="M35.18,21.14h-9.7a.89.89,0,0,0-.77.85V41.74a1.22,1.22,0,0,0,.65,1.08.2.2,0,0,1,.12.18v5.09L27,46.64h8.2V43a.21.21,0,0,1,.11-.19A1.2,1.2,0,0,0,36,41.74V22A.9.9,0,0,0,35.18,21.14Z"/><path class="b" d="M8.64,60.3a38.41,38.41,0,0,0,14.87,5.85A38.47,38.47,0,0,0,38.38,60.3c3-2.09,6.51-5.57,6.51-10.23V48.94H39.28v4a.21.21,0,0,1-.2.21H35.41A.21.21,0,0,1,35.2,53v-4H25.48v4a.22.22,0,0,1-.21.21H21.6a.21.21,0,0,1-.21-.21v-4H11.67v4a.22.22,0,0,1-.21.21H7.79A.21.21,0,0,1,7.58,53v-4H2.12v1.13C2.12,54.73,5.67,58.21,8.64,60.3Z"/><path d="M7.58,43a.21.21,0,0,1,.11-.19,1.2,1.2,0,0,0,.65-1.07V22a.9.9,0,0,0-.77-.89.21.21,0,0,1-.18-.21V18.87a.2.2,0,0,1,.21-.2H9.08a14.57,14.57,0,0,1,28.7,0h1.49a.2.2,0,0,1,.2.2v2.06a.21.21,0,0,1-.17.21.91.91,0,0,0-.78.85V41.74a1.22,1.22,0,0,0,.65,1.08.19.19,0,0,1,.11.18v5.09l1.53-1.45h4.08V2.12H2.12V46.64H7.58Z"/><path class="a" d="M17,60.4V56.46l-2.08.15v.27H15a1,1,0,0,1,.68.17.61.61,0,0,1,.13.45v2.9c0,.27-.26.33-.82.35V61h2.87v-.28C17.26,60.73,17,60.67,17,60.4Z"/><path class="a" d="M19.39,58.15c.13-.55.27-.71.93-.71H22l0,0-2.45,3.37v.25h1l.93-1.86L22.66,57v-.48H19.17l0,1.67Z"/><path class="a" d="M26.37,58.44l.06,0c.6-.22.91-.55.91-1s-.53-1.09-1.69-1.09-1.78.56-1.78,1.42a1.3,1.3,0,0,0,.76,1.12l.05,0-.05,0c-.6.23-.9.58-.9,1,0,.74.7,1.17,1.93,1.17,1,0,1.82-.62,1.82-1.43,0-.55-.34-1-1.05-1.26Zm-.83-1.77a.78.78,0,0,1,.88.78,1.23,1.23,0,0,1-.34.87h0c-.6-.22-1.19-.48-1.19-1A.64.64,0,0,1,25.54,56.67Zm.11,4.18a1,1,0,0,1-1-1,1.12,1.12,0,0,1,.32-.8h0l.25.09c.87.28,1.17.53,1.17.94A.71.71,0,0,1,25.65,60.85Z"/><path class="a" d="M30.72,58.28a2.5,2.5,0,0,0-1.07.22l0,0v-.05l.05-1.07h2.51l.07-.92h-3l-.09,2.27.23.18a1.91,1.91,0,0,1,1-.28c.61,0,1,.38,1,1.05s-.32,1.13-.95,1.13a1.25,1.25,0,0,1-.64-.16l0,0,0,0a.64.64,0,0,0,.34-.56.56.56,0,0,0-.58-.6.6.6,0,0,0-.65.62c0,.66.67,1,1.8,1a1.59,1.59,0,0,0,1.81-1.5C32.46,58.64,31.57,58.28,30.72,58.28Z"/><path d="M43.65,61.45h-.52V61.1h1.43v.35H44v1.38h-.39Zm1.28-.35h.41l.46.73.45-.73h.41v1.73h-.37V61.66l-.48.76h0l-.48-.76v1.17h-.37Z"/></svg>