<svg xmlns="http://www.w3.org/2000/svg" viewBox="0 0 600 32.68"><title>GEORGIA-HW-1CB</title><path d="M462.26,0h0c-11.18,0-17,8.21-17,16.33a16,16,0,0,0,16.44,16.33c9.68,0,16.71-7,16.71-16.72A15.66,15.66,0,0,0,462.26,0Zm8.5,17.26c0,7.76-3.23,12.32-8.22,12.32-5.65,0-9.74-5.66-9.74-14.09,0-7.6,3.5-12.45,8.53-12.45h0C467.07,3,470.76,8.35,470.76,17.26Z"/><path d="M318.1,0h0c-11.18,0-17,8.21-17,16.33a16,16,0,0,0,16.44,16.33c9.68,0,16.71-7,16.71-16.72A15.66,15.66,0,0,0,318.1,0Zm8.5,17.26C326.6,25,323.37,30,318.38,30c-5.65,0-9.75-6.12-9.75-14.55,0-7.6,3.51-12.9,8.53-12.9h0C322.91,2.59,326.6,8.35,326.6,17.26Z"/><path d="M409.38,19V30.9l-1.19.28a43.74,43.74,0,0,1-9.58,1.48c-11.2,0-18.43-6.3-18.43-16C380.18,5.2,389.72,0,398.59,0a45.18,45.18,0,0,1,9.79,1.65V9.1s-2.78-6-9.58-6a10.65,10.65,0,0,0-10.25,7.55,17.54,17.54,0,0,0-.81,5.21c0,9.87,5.69,13.84,11.33,13.84a5.64,5.64,0,0,0,2.63-.54,2.68,2.68,0,0,0,1-2.44V20.09c0-4.06-2.83-5.26-2.83-5.26h11.57S409.38,15.36,409.38,19Z"/><path d="M541.35,19V30.9l-1.19.28a43.74,43.74,0,0,1-9.58,1.48c-11.2,0-18.43-6.3-18.43-16C512.15,5.2,521.69,0,530.56,0a45.18,45.18,0,0,1,9.79,1.65V9.1s-2.78-6-9.58-6a10.65,10.65,0,0,0-10.25,7.55,17.54,17.54,0,0,0-.81,5.21c0,9.87,5.69,13.84,11.33,13.84a5.64,5.64,0,0,0,2.63-.54,2.68,2.68,0,0,0,1-2.44V20.09c0-4.06-2.83-5.26-2.83-5.26H543.4S541.35,15.36,541.35,19Z"/><path d="M107.83.71c1.8.78,1.39,3.23.65,5.16-.37,1.07-4.57,11.5-6.51,16.32-.72-2.08-5.45-15.85-5.7-16.59a4.42,4.42,0,0,1,1-4.89H85.13C87.71,2.37,88.41,4,89.89,8c2.51,6.7,6,16.23,8.69,23.79l.06.18h3.2L111.42,7.8c1-2.69,2.93-5.94,5.09-7.09Z"/><path d="M139.65,27.1c-1.54,1.79-5.58,1.68-6.16,1.68a9.55,9.55,0,0,1-3.82-.43c-.81-.36-1-1.46-1-3.64V17.9h3.71c3.34,0,5.63.2,6.3,1.88V12.5c-.63,1.67-2.82,2-6.3,2h-3.71v-10a.62.62,0,0,1,.61-.63h5.52c2.74,0,4.08.47,5.2,1.9a14.12,14.12,0,0,1,1.84,3.57V.71H119.4c.71.49,2.56,2.23,2.56,7.06V24.69c0,6-2.82,7.23-2.82,7.23h23.3v-9.2A24.36,24.36,0,0,1,139.65,27.1Z"/><path d="M430.49,28.78a9.55,9.55,0,0,1-3.82-.43c-.81-.35-1-1.46-1-3.64V17.9h3.71c3.34,0,5.63.2,6.3,1.88V12.5c-.63,1.67-2.82,2-6.3,2h-3.71V5.18c0-1.36,0-1.36,1.66-1.36h4.47c2.74,0,4.08.47,5.2,1.9a14.12,14.12,0,0,1,1.84,3.57V.71h-22.7c.71.49,2.56,2.23,2.56,7.06V24.69c0,6-2.82,7.23-2.82,7.23h23.52v-9.2a24.36,24.36,0,0,1-2.78,4.38C435.12,28.89,431.07,28.78,430.49,28.78Z"/><path d="M559.81,31.92S557,30.67,557,24.69V7.77c0-4.83,1.85-6.57,2.56-7.06H547.8c.71.49,2.56,2.23,2.56,7.06V24.69c0,6-2.82,7.23-2.82,7.23Z"/><path d="M65,31.92s-2.82-1.25-2.82-7.23V7.77C62.19,2.94,64,1.2,64.74.71H56.32c.71.49,2.55,2.23,2.55,7.06V20.45L42.12.71H34.76c.71.49,2.55,2.23,2.55,7.06V24.69c0,6-2.82,7.23-2.82,7.23h9s-2.82-1.25-2.82-7.23V9.83L58.52,31.92Z"/><path d="M219.36,31.92s-2.82-1.25-2.82-7.23V7.77c0-4.83,1.84-6.57,2.55-7.06h-11.6c.71.49,2.55,2.23,2.55,7.06V24.69c0,6-2.81,7.23-2.81,7.23Z"/><path d="M81.71,31.92s-2.81-1.25-2.81-7.23V7.77c0-4.83,1.84-6.57,2.55-7.06H69.8c.7.49,2.55,2.23,2.55,7.06V24.69c0,6-2.82,7.23-2.82,7.23Z"/><path d="M594.57,31.92c-2.58-1.66-3.28-3.24-4.76-7.25-2.51-6.69-6-16.22-8.69-23.78l-.06-.18h-3.64l-9.58,24.12c-1.05,2.69-2.93,5.94-5.09,7.09h8.86c-1.8-.78-1.39-3.23-.65-5.17.13-.37.63-1.67,1.31-3.38h9.88L583.43,27a4.4,4.4,0,0,1-.95,4.89Zm-20.9-12.08c1.82-4.57,3.88-9.67,3.88-9.67l3.37,9.67Z"/><path d="M193.35,12.69c-4.29-2.09-5.78-3.32-5.87-5.94-.07-2.14,1.33-4.19,4.41-4.19,4.52,0,6.88,2.59,8.23,5.45V1.33A30.69,30.69,0,0,0,192.38.06c-6.56,0-11,4-11,9.31s4,7.52,9,10c3.59,1.82,5.58,3,5.58,5.85,0,2.62-1.44,4.64-4.47,4.64-5,0-8.53-4.74-9.67-7.78L182,30a24.08,24.08,0,0,0,4.28,1.84,17.31,17.31,0,0,0,4.6.72c6.58,0,11.61-3.34,11.61-9.71C202.53,18.14,198.41,15.1,193.35,12.69Z"/><path d="M350.91,31.92s-2.82-1.25-2.82-7.23V18h3.7c3.34,0,5.63.19,6.31,1.88V12.5c-.64,1.67-2.83,2-6.31,2h-3.7V5.09c0-1.36,0-1.36,1.66-1.36h4.46c2.74,0,4.08.47,5.2,1.9a14,14,0,0,1,1.84,3.57V.71H338.69c.71.49,2.55,2.23,2.55,7.06V24.69c0,6-2.82,7.23-2.82,7.23Z"/><path d="M240.63,5.18c0-1.36,0-1.36,1.66-1.36h1.41c2.74,0,4.08.47,5.2,1.9a14.12,14.12,0,0,1,1.84,3.57V.71h-27V9.29a14.12,14.12,0,0,1,1.84-3.57c1.12-1.43,2.46-1.9,5.2-1.9h1.41c1.66,0,1.66,0,1.66,1.36V24.69c0,6-2.82,7.23-2.82,7.23h12.4s-2.82-1.25-2.82-7.23Z"/><path d="M24,18V7.77C24,2.94,22.18,1.2,21.47.71h8.7c-.7.49-2.55,2.23-2.55,7.06v10S29,32.43,16,32.67c0,0-13.44.76-13.44-11V7.77C2.55,2.94.71,1.2,0,.71H11.64c-.7.49-2.55,2.23-2.55,7.06V19.61c0,10,7.27,9.7,7.27,9.7S24,30.78,24,18Z"/><path d="M272.67.78s3.53,1.94,2.23,4.8l-4.45,9.09-4.7-8.83A3.85,3.85,0,0,1,267.14.78h-12.9a14.33,14.33,0,0,1,4.89,5.27L265.82,18v6.73c0,6-2.82,7.23-2.82,7.23h12.23s-2.82-1.25-2.82-7.23v-7.1L278,6.68a13.35,13.35,0,0,1,5.75-5.9Z"/><path d="M166,9.72a6.74,6.74,0,0,1-2.15,5.43h0c-.88.8-2.36,1.19-4.52,1.19h-.88V5.11c0-.89.08-1.32.3-1.52a3.26,3.26,0,0,1,2-.45C163.31,3.14,166,4.87,166,9.72Zm6,15.18c-1.33-2.26-3.35-5.64-4.35-7.56,2.14-.92,5.41-3.08,5.41-7.6h0c0-.22,0-.45,0-.68a7.74,7.74,0,0,0-3.21-6.52C168,1.2,165.62.71,161.25.71H149.36c.71.49,2.56,2.23,2.56,7.06V24.69c0,6-2.82,7.23-2.82,7.23h12.2s-2.82-1.25-2.82-7.23V18.77h.92a3,3,0,0,1,2.91,1.82c.47.85.91,1.7,1.34,2.53.86,1.63,2,3.79,2.76,5.06,1.89,3,3.42,4.3,9.22,4.11,0,0,1,0,1.75-.1C177.37,32.19,175.38,30.69,172,24.9Z"/><path d="M498.5,9.72a6.74,6.74,0,0,1-2.15,5.43h0c-.88.8-2.36,1.19-4.52,1.19h-.89V5.11c0-.89.09-1.32.31-1.52a3.24,3.24,0,0,1,2-.45C495.79,3.14,498.5,4.87,498.5,9.72Zm6,15.18c-1.33-2.26-3.35-5.64-4.35-7.56,2.14-.92,5.41-3.08,5.41-7.6h0c0-.22,0-.45,0-.68a7.73,7.73,0,0,0-3.2-6.52C500.44,1.2,498.1.71,493.73.71H481.84c.71.49,2.56,2.23,2.56,7.06V24.69c0,6-2.82,7.23-2.82,7.23h12.2s-2.83-1.25-2.83-7.23V18.77h.93a3,3,0,0,1,2.91,1.82c.46.85.91,1.7,1.34,2.53.85,1.63,1.95,3.79,2.75,5.06,1.9,3,3.43,4.3,9.23,4.11,0,0,1,0,1.74-.1C509.84,32.19,507.85,30.69,504.46,24.9Z"/><path d="M600,29.14a2.72,2.72,0,1,1-2.71-2.74A2.71,2.71,0,0,1,600,29.14Zm-4.76,0a2.09,2.09,0,0,0,2.07,2.19,2.19,2.19,0,0,0,0-4.37A2.09,2.09,0,0,0,595.24,29.14Zm1.63,1.44h-.61V27.84a5.23,5.23,0,0,1,1-.08,1.56,1.56,0,0,1,.91.2.74.74,0,0,1,.26.6.68.68,0,0,1-.55.63v0a.8.8,0,0,1,.49.67,2.33,2.33,0,0,0,.19.68h-.66a2.39,2.39,0,0,1-.21-.67c-.05-.3-.21-.43-.55-.43h-.29Zm0-1.55h.29c.34,0,.61-.12.61-.4s-.18-.42-.56-.42a2,2,0,0,0-.34,0Z"/></svg>